<svg xmlns="http://www.w3.org/2000/svg" viewBox="0 0 540 190" role="img" aria-label="映湾 CASTBAY horizontal-en light">
<defs><linearGradient id="outer" x1="0" y1="0" x2="1" y2="1"><stop offset="0" stop-color="#C9B7EF"/><stop offset="1" stop-color="#AA92DE"/></linearGradient><linearGradient id="middle" x1="0" y1="0" x2="1" y2="1"><stop offset="0" stop-color="#A98EE0"/><stop offset="1" stop-color="#8663C8"/></linearGradient><linearGradient id="inner" x1="0" y1="0" x2="1" y2="1"><stop offset="0" stop-color="#8762C5"/><stop offset="1" stop-color="#623CA6"/></linearGradient><linearGradient id="base" x1="0" y1="0" x2="1" y2="1"><stop offset="0" stop-color="#4F298F"/><stop offset="1" stop-color="#6440A7"/></linearGradient></defs>
<g transform="translate(18 14) scale(1.5)" fill="none" stroke-linecap="round" stroke-linejoin="round">
  <path d="M17 28C42-3 86-3 111 28" stroke="url(#outer)" stroke-width="11"/>
  <path d="M32 44C48 23 80 23 96 44" stroke="url(#middle)" stroke-width="11"/>
  <path d="M49 57C56 47 72 47 79 57" stroke="url(#inner)" stroke-width="10"/>
  <path d="M18 60c13 11 28 18 46 18s33-7 46-18" stroke="url(#base)" stroke-width="11"/>
  <path d="M18 60v22c0 8 6 14 14 14h64c8 0 14-6 14-14V60" stroke="url(#base)" stroke-width="11"/>
</g>
<text x="210" y="88" fill="#4F298F" font-family="Avenir Next, Inter, sans-serif" font-size="62" font-weight="650" letter-spacing="1.5">CASTBAY</text>
<text x="212" y="150" fill="#6744A5" font-family="PingFang SC, Noto Sans SC, sans-serif" font-size="42" font-weight="600" letter-spacing="2">映湾</text>
</svg>
